<svg width="32" height="32" viewBox="0 0 32 32" fill="none" xmlns="http://www.w3.org/2000/svg">
<path d="M16.0008 1.46582C7.9738 1.46582 1.4668 7.97282 1.4668 15.9998C1.4668 24.0268 7.9738 30.5338 16.0008 30.5338C24.0278 30.5338 30.5348 24.0268 30.5348 15.9998C30.5348 7.97282 24.0278 1.46582 16.0008 1.46582ZM17.2558 23.8798V25.9268H15.2978V23.9028C12.0848 23.4628 10.6778 20.8228 10.6778 20.8228L12.6778 19.1498C12.6778 19.1498 13.9548 21.3728 16.2648 21.3728C17.5408 21.3728 18.5088 20.6898 18.5088 19.5228C18.5088 16.7948 11.1588 17.1258 11.1588 12.0648C11.1588 9.86482 12.8988 8.27982 15.2968 7.90482V5.85982H17.2548V7.90482C18.9268 8.12482 20.9068 9.00482 20.9068 10.8978V12.3498H18.3108V11.6458C18.3108 10.9198 17.3858 10.4358 16.3508 10.4358C15.0308 10.4358 14.0638 11.0958 14.0638 12.0198C14.0638 14.8138 21.4138 14.1318 21.4138 19.4348C21.4138 21.6148 19.7858 23.5048 17.2558 23.8798Z" fill="#14141E"/>
<path d="M16.0008 1.46582C7.9738 1.46582 1.4668 7.97282 1.4668 15.9998C1.4668 24.0268 7.9738 30.5338 16.0008 30.5338C24.0278 30.5338 30.5348 24.0268 30.5348 15.9998C30.5348 7.97282 24.0278 1.46582 16.0008 1.46582ZM17.2558 23.8798V25.9268H15.2978V23.9028C12.0848 23.4628 10.6778 20.8228 10.6778 20.8228L12.6778 19.1498C12.6778 19.1498 13.9548 21.3728 16.2648 21.3728C17.5408 21.3728 18.5088 20.6898 18.5088 19.5228C18.5088 16.7948 11.1588 17.1258 11.1588 12.0648C11.1588 9.86482 12.8988 8.27982 15.2968 7.90482V5.85982H17.2548V7.90482C18.9268 8.12482 20.9068 9.00482 20.9068 10.8978V12.3498H18.3108V11.6458C18.3108 10.9198 17.3858 10.4358 16.3508 10.4358C15.0308 10.4358 14.0638 11.0958 14.0638 12.0198C14.0638 14.8138 21.4138 14.1318 21.4138 19.4348C21.4138 21.6148 19.7858 23.5048 17.2558 23.8798Z" fill="black" fill-opacity="0.2"/>
<path d="M16.0008 1.46582C7.9738 1.46582 1.4668 7.97282 1.4668 15.9998C1.4668 24.0268 7.9738 30.5338 16.0008 30.5338C24.0278 30.5338 30.5348 24.0268 30.5348 15.9998C30.5348 7.97282 24.0278 1.46582 16.0008 1.46582ZM17.2558 23.8798V25.9268H15.2978V23.9028C12.0848 23.4628 10.6778 20.8228 10.6778 20.8228L12.6778 19.1498C12.6778 19.1498 13.9548 21.3728 16.2648 21.3728C17.5408 21.3728 18.5088 20.6898 18.5088 19.5228C18.5088 16.7948 11.1588 17.1258 11.1588 12.0648C11.1588 9.86482 12.8988 8.27982 15.2968 7.90482V5.85982H17.2548V7.90482C18.9268 8.12482 20.9068 9.00482 20.9068 10.8978V12.3498H18.3108V11.6458C18.3108 10.9198 17.3858 10.4358 16.3508 10.4358C15.0308 10.4358 14.0638 11.0958 14.0638 12.0198C14.0638 14.8138 21.4138 14.1318 21.4138 19.4348C21.4138 21.6148 19.7858 23.5048 17.2558 23.8798Z" fill="black" fill-opacity="0.2"/>
<path d="M16.0008 1.46582C7.9738 1.46582 1.4668 7.97282 1.4668 15.9998C1.4668 24.0268 7.9738 30.5338 16.0008 30.5338C24.0278 30.5338 30.5348 24.0268 30.5348 15.9998C30.5348 7.97282 24.0278 1.46582 16.0008 1.46582ZM17.2558 23.8798V25.9268H15.2978V23.9028C12.0848 23.4628 10.6778 20.8228 10.6778 20.8228L12.6778 19.1498C12.6778 19.1498 13.9548 21.3728 16.2648 21.3728C17.5408 21.3728 18.5088 20.6898 18.5088 19.5228C18.5088 16.7948 11.1588 17.1258 11.1588 12.0648C11.1588 9.86482 12.8988 8.27982 15.2968 7.90482V5.85982H17.2548V7.90482C18.9268 8.12482 20.9068 9.00482 20.9068 10.8978V12.3498H18.3108V11.6458C18.3108 10.9198 17.3858 10.4358 16.3508 10.4358C15.0308 10.4358 14.0638 11.0958 14.0638 12.0198C14.0638 14.8138 21.4138 14.1318 21.4138 19.4348C21.4138 21.6148 19.7858 23.5048 17.2558 23.8798Z" fill="black" fill-opacity="0.2"/>
<path d="M16.0008 1.46582C7.9738 1.46582 1.4668 7.97282 1.4668 15.9998C1.4668 24.0268 7.9738 30.5338 16.0008 30.5338C24.0278 30.5338 30.5348 24.0268 30.5348 15.9998C30.5348 7.97282 24.0278 1.46582 16.0008 1.46582ZM17.2558 23.8798V25.9268H15.2978V23.9028C12.0848 23.4628 10.6778 20.8228 10.6778 20.8228L12.6778 19.1498C12.6778 19.1498 13.9548 21.3728 16.2648 21.3728C17.5408 21.3728 18.5088 20.6898 18.5088 19.5228C18.5088 16.7948 11.1588 17.1258 11.1588 12.0648C11.1588 9.86482 12.8988 8.27982 15.2968 7.90482V5.85982H17.2548V7.90482C18.9268 8.12482 20.9068 9.00482 20.9068 10.8978V12.3498H18.3108V11.6458C18.3108 10.9198 17.3858 10.4358 16.3508 10.4358C15.0308 10.4358 14.0638 11.0958 14.0638 12.0198C14.0638 14.8138 21.4138 14.1318 21.4138 19.4348C21.4138 21.6148 19.7858 23.5048 17.2558 23.8798Z" fill="black" fill-opacity="0.2"/>
<path d="M16.0008 1.46582C7.9738 1.46582 1.4668 7.97282 1.4668 15.9998C1.4668 24.0268 7.9738 30.5338 16.0008 30.5338C24.0278 30.5338 30.5348 24.0268 30.5348 15.9998C30.5348 7.97282 24.0278 1.46582 16.0008 1.46582ZM17.2558 23.8798V25.9268H15.2978V23.9028C12.0848 23.4628 10.6778 20.8228 10.6778 20.8228L12.6778 19.1498C12.6778 19.1498 13.9548 21.3728 16.2648 21.3728C17.5408 21.3728 18.5088 20.6898 18.5088 19.5228C18.5088 16.7948 11.1588 17.1258 11.1588 12.0648C11.1588 9.86482 12.8988 8.27982 15.2968 7.90482V5.85982H17.2548V7.90482C18.9268 8.12482 20.9068 9.00482 20.9068 10.8978V12.3498H18.3108V11.6458C18.3108 10.9198 17.3858 10.4358 16.3508 10.4358C15.0308 10.4358 14.0638 11.0958 14.0638 12.0198C14.0638 14.8138 21.4138 14.1318 21.4138 19.4348C21.4138 21.6148 19.7858 23.5048 17.2558 23.8798Z" fill="black" fill-opacity="0.2"/>
<path d="M16.0008 1.46582C7.9738 1.46582 1.4668 7.97282 1.4668 15.9998C1.4668 24.0268 7.9738 30.5338 16.0008 30.5338C24.0278 30.5338 30.5348 24.0268 30.5348 15.9998C30.5348 7.97282 24.0278 1.46582 16.0008 1.46582ZM17.2558 23.8798V25.9268H15.2978V23.9028C12.0848 23.4628 10.6778 20.8228 10.6778 20.8228L12.6778 19.1498C12.6778 19.1498 13.9548 21.3728 16.2648 21.3728C17.5408 21.3728 18.5088 20.6898 18.5088 19.5228C18.5088 16.7948 11.1588 17.1258 11.1588 12.0648C11.1588 9.86482 12.8988 8.27982 15.2968 7.90482V5.85982H17.2548V7.90482C18.9268 8.12482 20.9068 9.00482 20.9068 10.8978V12.3498H18.3108V11.6458C18.3108 10.9198 17.3858 10.4358 16.3508 10.4358C15.0308 10.4358 14.0638 11.0958 14.0638 12.0198C14.0638 14.8138 21.4138 14.1318 21.4138 19.4348C21.4138 21.6148 19.7858 23.5048 17.2558 23.8798Z" fill="black" fill-opacity="0.2"/>
<path d="M16.0008 1.46582C7.9738 1.46582 1.4668 7.97282 1.4668 15.9998C1.4668 24.0268 7.9738 30.5338 16.0008 30.5338C24.0278 30.5338 30.5348 24.0268 30.5348 15.9998C30.5348 7.97282 24.0278 1.46582 16.0008 1.46582ZM17.2558 23.8798V25.9268H15.2978V23.9028C12.0848 23.4628 10.6778 20.8228 10.6778 20.8228L12.6778 19.1498C12.6778 19.1498 13.9548 21.3728 16.2648 21.3728C17.5408 21.3728 18.5088 20.6898 18.5088 19.5228C18.5088 16.7948 11.1588 17.1258 11.1588 12.0648C11.1588 9.86482 12.8988 8.27982 15.2968 7.90482V5.85982H17.2548V7.90482C18.9268 8.12482 20.9068 9.00482 20.9068 10.8978V12.3498H18.3108V11.6458C18.3108 10.9198 17.3858 10.4358 16.3508 10.4358C15.0308 10.4358 14.0638 11.0958 14.0638 12.0198C14.0638 14.8138 21.4138 14.1318 21.4138 19.4348C21.4138 21.6148 19.7858 23.5048 17.2558 23.8798Z" fill="black" fill-opacity="0.2"/>
</svg>
