<svg width="24" height="24" viewBox="0 0 24 24" fill="none" xmlns="http://www.w3.org/2000/svg">
<path d="M12.0001 1.09961C5.97986 1.09961 1.09961 5.97986 1.09961 12.0001C1.09961 18.0204 5.97986 22.9006 12.0001 22.9006C18.0204 22.9006 22.9006 18.0204 22.9006 12.0001C22.9006 5.97986 18.0204 1.09961 12.0001 1.09961ZM12.9414 17.9101V19.4454H11.4729V17.9274C9.06311 17.5974 8.00786 15.6174 8.00786 15.6174L9.50786 14.3626C9.50786 14.3626 10.4656 16.0299 12.1981 16.0299C13.1551 16.0299 13.8811 15.5176 13.8811 14.6424C13.8811 12.5964 8.36861 12.8446 8.36861 9.04886C8.36861 7.39886 9.67361 6.21011 11.4721 5.92886V4.39511H12.9406V5.92886C14.1946 6.09386 15.6796 6.75386 15.6796 8.17361V9.26261H13.7326V8.73461C13.7326 8.19011 13.0389 7.82711 12.2626 7.82711C11.2726 7.82711 10.5474 8.32211 10.5474 9.01511C10.5474 11.1106 16.0599 10.5991 16.0599 14.5764C16.0599 16.2114 14.8389 17.6289 12.9414 17.9101Z" fill="white"/>
</svg>
