<svg width="110" height="91" viewBox="0 0 110 91" fill="none" xmlns="http://www.w3.org/2000/svg">
<path d="M4.58203 91.6665V78.8331C4.58203 76.2359 5.2512 73.8495 6.58953 71.674C7.92786 69.4984 9.70314 67.8362 11.9154 66.6873C16.6515 64.3192 21.464 62.544 26.3529 61.3615C31.2418 60.179 36.207 59.5862 41.2487 59.5831C46.2904 59.5801 51.2556 60.1728 56.1445 61.3615C61.0334 62.5501 65.8459 64.3254 70.582 66.6873C72.7973 67.8331 74.5741 69.4953 75.9125 71.674C77.2508 73.8526 77.9184 76.239 77.9154 78.8331V91.6665H4.58203ZM87.082 91.6665V77.9165C87.082 74.5554 86.147 71.3272 84.277 68.2319C82.407 65.1366 79.7518 62.4828 76.3112 60.2706C80.207 60.729 83.8737 61.5127 87.3112 62.6219C90.7487 63.731 93.957 65.0862 96.9362 66.6873C99.6862 68.2151 101.787 69.914 103.238 71.784C104.69 73.654 105.415 75.6981 105.415 77.9165V91.6665H87.082ZM41.2487 54.9998C36.207 54.9998 31.8911 53.2047 28.3008 49.6144C24.7105 46.0241 22.9154 41.7081 22.9154 36.6665C22.9154 31.6248 24.7105 27.3088 28.3008 23.7185C31.8911 20.1283 36.207 18.3331 41.2487 18.3331C46.2904 18.3331 50.6063 20.1283 54.1966 23.7185C57.7869 27.3088 59.582 31.6248 59.582 36.6665C59.582 41.7081 57.7869 46.0241 54.1966 49.6144C50.6063 53.2047 46.2904 54.9998 41.2487 54.9998ZM87.082 36.6665C87.082 41.7081 85.2869 46.0241 81.6966 49.6144C78.1063 53.2047 73.7904 54.9998 68.7487 54.9998C67.9084 54.9998 66.839 54.9051 65.5404 54.7156C64.2418 54.5262 63.1723 54.3153 62.332 54.0831C64.3945 51.6387 65.9804 48.9269 67.0895 45.9477C68.1987 42.9685 68.7518 39.8748 68.7487 36.6665C68.7456 33.4581 68.1926 30.3644 67.0895 27.3852C65.9865 24.406 64.4006 21.6942 62.332 19.2498C63.4015 18.8678 64.4709 18.6188 65.5404 18.5027C66.6098 18.3866 67.6793 18.3301 68.7487 18.3331C73.7904 18.3331 78.1063 20.1283 81.6966 23.7185C85.2869 27.3088 87.082 31.6248 87.082 36.6665Z" fill="#A8A8A8"/>
</svg>
