<svg width="117" height="104" viewBox="0 0 117 104" fill="none" xmlns="http://www.w3.org/2000/svg">
<circle cx="8" cy="27" r="8" fill="#A8A8A8" fill-opacity="0.5"/>
<circle cx="8" cy="53" r="8" fill="#A8A8A8" fill-opacity="0.5"/>
<path d="M54.668 69.3337C57.0513 69.3337 59.0923 68.4858 60.791 66.79C62.4896 65.0942 63.3375 63.0532 63.3346 60.667C63.3318 58.2808 62.4839 56.2412 60.791 54.5483C59.0981 52.8554 57.0571 52.0061 54.668 52.0003C52.2789 51.9945 50.2393 52.8439 48.5493 54.5483C46.8593 56.2528 46.01 58.2923 46.0013 60.667C45.9926 63.0417 46.842 65.0827 48.5493 66.79C50.2566 68.4973 52.2962 69.3452 54.668 69.3337ZM89.3346 69.3337C91.718 69.3337 93.759 68.4858 95.4576 66.79C97.1563 65.0942 98.0042 63.0532 98.0013 60.667C97.9984 58.2808 97.1505 56.2412 95.4576 54.5483C93.7648 52.8554 91.7238 52.0061 89.3346 52.0003C86.9455 51.9945 84.906 52.8439 83.216 54.5483C81.526 56.2528 80.6766 58.2923 80.668 60.667C80.6593 63.0417 81.5086 65.0827 83.216 66.79C84.9233 68.4973 86.9629 69.3452 89.3346 69.3337ZM72.0013 43.3337C74.3846 43.3337 76.4256 42.4858 78.1243 40.79C79.823 39.0942 80.6709 37.0532 80.668 34.667C80.6651 32.2808 79.8172 30.2412 78.1243 28.5483C76.4314 26.8554 74.3904 26.0061 72.0013 26.0003C69.6122 25.9945 67.5726 26.8439 65.8826 28.5483C64.1926 30.2528 63.3433 32.2923 63.3346 34.667C63.326 37.0417 64.1753 39.0827 65.8826 40.79C67.59 42.4973 69.6295 43.3452 72.0013 43.3337ZM72.0013 95.3337C66.0069 95.3337 60.3735 94.1954 55.1013 91.919C49.8291 89.6426 45.243 86.5558 41.343 82.6587C37.443 78.7616 34.3562 74.1754 32.0826 68.9003C29.8091 63.6252 28.6709 57.9919 28.668 52.0003C28.6651 46.0088 29.8033 40.3754 32.0826 35.1003C34.362 29.8252 37.4488 25.2391 41.343 21.342C45.2372 17.4449 49.8233 14.3581 55.1013 12.0817C60.3793 9.80521 66.0126 8.66699 72.0013 8.66699C77.99 8.66699 83.6233 9.80521 88.9013 12.0817C94.1793 14.3581 98.7654 17.4449 102.66 21.342C106.554 25.2391 109.642 29.8252 111.924 35.1003C114.207 40.3754 115.343 46.0088 115.335 52.0003C115.326 57.9919 114.188 63.6252 111.92 68.9003C109.652 74.1754 106.565 78.7616 102.66 82.6587C98.7539 86.5558 94.1678 89.644 88.9013 91.9233C83.6349 94.2027 78.0015 95.3394 72.0013 95.3337Z" fill="#A8A8A8" fill-opacity="0.5"/>
</svg>
