<svg width="38" height="38" viewBox="0 0 38 38" fill="none" xmlns="http://www.w3.org/2000/svg">
<circle cx="19" cy="19" r="19" fill="#FF4A4A"/>
<g clip-path="url(#clip0_2354_124)">
<path d="M23 11C23 10.337 23.2634 9.70107 23.7322 9.23223C24.2011 8.76339 24.837 8.5 25.5 8.5C26.163 8.5 26.7989 8.76339 27.2678 9.23223C27.7366 9.70107 28 10.337 28 11V11.25C28 11.4489 28.079 11.6397 28.2197 11.7803C28.3603 11.921 28.5511 12 28.75 12C28.9489 12 29.1397 11.921 29.2803 11.7803C29.421 11.6397 29.5 11.4489 29.5 11.25V11C29.5 9.93913 29.0786 8.92172 28.3284 8.17157C27.5783 7.42143 26.5609 7 25.5 7C24.4391 7 23.4217 7.42143 22.6716 8.17157C21.9214 8.92172 21.5 9.93913 21.5 11V13H14.25C13.388 13 12.5614 13.3424 11.9519 13.9519C11.3424 14.5614 11 15.388 11 16.25V23.75C11 24.612 11.3424 25.4386 11.9519 26.0481C12.5614 26.6576 13.388 27 14.25 27H23.75C24.612 27 25.4386 26.6576 26.0481 26.0481C26.6576 25.4386 27 24.612 27 23.75V16.25C27 15.388 26.6576 14.5614 26.0481 13.9519C25.4386 13.3424 24.612 13 23.75 13H23V11ZM19 21.5C18.6022 21.5 18.2206 21.342 17.9393 21.0607C17.658 20.7794 17.5 20.3978 17.5 20C17.5 19.6022 17.658 19.2206 17.9393 18.9393C18.2206 18.658 18.6022 18.5 19 18.5C19.3978 18.5 19.7794 18.658 20.0607 18.9393C20.342 19.2206 20.5 19.6022 20.5 20C20.5 20.3978 20.342 20.7794 20.0607 21.0607C19.7794 21.342 19.3978 21.5 19 21.5Z" fill="white"/>
</g>
<defs>
<clipPath id="clip0_2354_124">
<rect width="24" height="24" fill="white" transform="translate(7 7)"/>
</clipPath>
</defs>
</svg>
