<svg width="121" height="96" viewBox="0 0 121 96" fill="none" xmlns="http://www.w3.org/2000/svg">
<path d="M55.2917 78.1247V67.708H65.7083V78.1247H55.2917ZM50.0833 36.458H70.9167V29.2445C70.9167 28.4459 70.5833 27.7115 69.9167 27.0414C69.25 26.3712 68.5156 26.0379 67.7135 26.0414H53.2865C52.4878 26.0414 51.7535 26.3747 51.0833 27.0414C50.4132 27.708 50.0799 28.4424 50.0833 29.2445V36.458ZM22.0417 104.166C19.6424 104.166 17.6406 103.364 16.0365 101.76C14.4323 100.156 13.6285 98.1525 13.625 95.7497V75.5205H50.0833V79.1247C50.0833 80.333 50.4826 81.3365 51.2812 82.1351C52.0799 82.9337 53.0833 83.333 54.2917 83.333H66.7083C67.9167 83.333 68.9201 82.9337 69.7188 82.1351C70.5174 81.3365 70.9167 80.333 70.9167 79.1247V75.5205H107.375V95.7549C107.375 98.1507 106.573 100.151 104.969 101.755C103.365 103.359 101.363 104.163 98.9635 104.166H22.0417ZM13.625 70.3122V44.8747C13.625 42.4754 14.4288 40.4736 16.0365 38.8695C17.6441 37.2653 19.6441 36.4615 22.0365 36.458H44.875V29.2445C44.875 26.8486 45.6788 24.8469 47.2865 23.2393C48.8941 21.6316 50.8958 20.8295 53.2917 20.833H67.7135C70.1094 20.833 72.1111 21.6351 73.7188 23.2393C75.3264 24.8434 76.1285 26.8452 76.125 29.2445V36.458H98.9635C101.359 36.458 103.359 37.2618 104.964 38.8695C106.568 40.4771 107.372 42.4789 107.375 44.8747V70.3122H70.9167V66.708C70.9167 65.4997 70.5174 64.4962 69.7188 63.6976C68.9201 62.899 67.9167 62.4997 66.7083 62.4997H54.2917C53.0833 62.4997 52.0799 62.899 51.2812 63.6976C50.4826 64.4962 50.0833 65.4997 50.0833 66.708V70.3122H13.625Z" fill="#A8A8A8" fill-opacity="0.5"/>
</svg>
