<svg width="24" height="24" viewBox="0 0 24 24" fill="none" xmlns="http://www.w3.org/2000/svg">
<path d="M20 8.199V3C20 2.73478 19.8946 2.48043 19.7071 2.29289C19.5196 2.10536 19.2652 2 19 2H5C4.73478 2 4.48043 2.10536 4.29289 2.29289C4.10536 2.48043 4 2.73478 4 3V21C4 21.2652 4.10536 21.5196 4.29289 21.7071C4.48043 21.8946 4.73478 22 5 22H10" stroke="#14141E" stroke-width="2" stroke-linecap="round" stroke-linejoin="round"/>
<path d="M20 8.199V3C20 2.73478 19.8946 2.48043 19.7071 2.29289C19.5196 2.10536 19.2652 2 19 2H5C4.73478 2 4.48043 2.10536 4.29289 2.29289C4.10536 2.48043 4 2.73478 4 3V21C4 21.2652 4.10536 21.5196 4.29289 21.7071C4.48043 21.8946 4.73478 22 5 22H10" stroke="black" stroke-opacity="0.2" stroke-width="2" stroke-linecap="round" stroke-linejoin="round"/>
<path d="M20 8.199V3C20 2.73478 19.8946 2.48043 19.7071 2.29289C19.5196 2.10536 19.2652 2 19 2H5C4.73478 2 4.48043 2.10536 4.29289 2.29289C4.10536 2.48043 4 2.73478 4 3V21C4 21.2652 4.10536 21.5196 4.29289 21.7071C4.48043 21.8946 4.73478 22 5 22H10" stroke="black" stroke-opacity="0.2" stroke-width="2" stroke-linecap="round" stroke-linejoin="round"/>
<path d="M20 8.199V3C20 2.73478 19.8946 2.48043 19.7071 2.29289C19.5196 2.10536 19.2652 2 19 2H5C4.73478 2 4.48043 2.10536 4.29289 2.29289C4.10536 2.48043 4 2.73478 4 3V21C4 21.2652 4.10536 21.5196 4.29289 21.7071C4.48043 21.8946 4.73478 22 5 22H10" stroke="black" stroke-opacity="0.2" stroke-width="2" stroke-linecap="round" stroke-linejoin="round"/>
<path d="M20 8.199V3C20 2.73478 19.8946 2.48043 19.7071 2.29289C19.5196 2.10536 19.2652 2 19 2H5C4.73478 2 4.48043 2.10536 4.29289 2.29289C4.10536 2.48043 4 2.73478 4 3V21C4 21.2652 4.10536 21.5196 4.29289 21.7071C4.48043 21.8946 4.73478 22 5 22H10" stroke="black" stroke-opacity="0.2" stroke-width="2" stroke-linecap="round" stroke-linejoin="round"/>
<path d="M20 8.199V3C20 2.73478 19.8946 2.48043 19.7071 2.29289C19.5196 2.10536 19.2652 2 19 2H5C4.73478 2 4.48043 2.10536 4.29289 2.29289C4.10536 2.48043 4 2.73478 4 3V21C4 21.2652 4.10536 21.5196 4.29289 21.7071C4.48043 21.8946 4.73478 22 5 22H10" stroke="black" stroke-opacity="0.2" stroke-width="2" stroke-linecap="round" stroke-linejoin="round"/>
<path d="M20 8.199V3C20 2.73478 19.8946 2.48043 19.7071 2.29289C19.5196 2.10536 19.2652 2 19 2H5C4.73478 2 4.48043 2.10536 4.29289 2.29289C4.10536 2.48043 4 2.73478 4 3V21C4 21.2652 4.10536 21.5196 4.29289 21.7071C4.48043 21.8946 4.73478 22 5 22H10" stroke="black" stroke-opacity="0.2" stroke-width="2" stroke-linecap="round" stroke-linejoin="round"/>
<path d="M20 8.199V3C20 2.73478 19.8946 2.48043 19.7071 2.29289C19.5196 2.10536 19.2652 2 19 2H5C4.73478 2 4.48043 2.10536 4.29289 2.29289C4.10536 2.48043 4 2.73478 4 3V21C4 21.2652 4.10536 21.5196 4.29289 21.7071C4.48043 21.8946 4.73478 22 5 22H10" stroke="black" stroke-opacity="0.2" stroke-width="2" stroke-linecap="round" stroke-linejoin="round"/>
<path d="M8 7H14.5M8 10.5H10.5" stroke="#14141E" stroke-width="2" stroke-linecap="round"/>
<path d="M8 7H14.5M8 10.5H10.5" stroke="black" stroke-opacity="0.2" stroke-width="2" stroke-linecap="round"/>
<path d="M8 7H14.5M8 10.5H10.5" stroke="black" stroke-opacity="0.2" stroke-width="2" stroke-linecap="round"/>
<path d="M8 7H14.5M8 10.5H10.5" stroke="black" stroke-opacity="0.2" stroke-width="2" stroke-linecap="round"/>
<path d="M8 7H14.5M8 10.5H10.5" stroke="black" stroke-opacity="0.2" stroke-width="2" stroke-linecap="round"/>
<path d="M8 7H14.5M8 10.5H10.5" stroke="black" stroke-opacity="0.2" stroke-width="2" stroke-linecap="round"/>
<path d="M8 7H14.5M8 10.5H10.5" stroke="black" stroke-opacity="0.2" stroke-width="2" stroke-linecap="round"/>
<path d="M8 7H14.5M8 10.5H10.5" stroke="black" stroke-opacity="0.2" stroke-width="2" stroke-linecap="round"/>
<path d="M17 22C14.2385 22 12 19.7615 12 17C12 14.2385 14.2385 12 17 12C19.7615 12 22 14.2385 22 17C22 19.7615 19.7615 22 17 22Z" stroke="#14141E" stroke-width="2" stroke-linecap="round" stroke-linejoin="round"/>
<path d="M17 22C14.2385 22 12 19.7615 12 17C12 14.2385 14.2385 12 17 12C19.7615 12 22 14.2385 22 17C22 19.7615 19.7615 22 17 22Z" stroke="black" stroke-opacity="0.2" stroke-width="2" stroke-linecap="round" stroke-linejoin="round"/>
<path d="M17 22C14.2385 22 12 19.7615 12 17C12 14.2385 14.2385 12 17 12C19.7615 12 22 14.2385 22 17C22 19.7615 19.7615 22 17 22Z" stroke="black" stroke-opacity="0.2" stroke-width="2" stroke-linecap="round" stroke-linejoin="round"/>
<path d="M17 22C14.2385 22 12 19.7615 12 17C12 14.2385 14.2385 12 17 12C19.7615 12 22 14.2385 22 17C22 19.7615 19.7615 22 17 22Z" stroke="black" stroke-opacity="0.2" stroke-width="2" stroke-linecap="round" stroke-linejoin="round"/>
<path d="M17 22C14.2385 22 12 19.7615 12 17C12 14.2385 14.2385 12 17 12C19.7615 12 22 14.2385 22 17C22 19.7615 19.7615 22 17 22Z" stroke="black" stroke-opacity="0.2" stroke-width="2" stroke-linecap="round" stroke-linejoin="round"/>
<path d="M17 22C14.2385 22 12 19.7615 12 17C12 14.2385 14.2385 12 17 12C19.7615 12 22 14.2385 22 17C22 19.7615 19.7615 22 17 22Z" stroke="black" stroke-opacity="0.2" stroke-width="2" stroke-linecap="round" stroke-linejoin="round"/>
<path d="M17 22C14.2385 22 12 19.7615 12 17C12 14.2385 14.2385 12 17 12C19.7615 12 22 14.2385 22 17C22 19.7615 19.7615 22 17 22Z" stroke="black" stroke-opacity="0.2" stroke-width="2" stroke-linecap="round" stroke-linejoin="round"/>
<path d="M17 22C14.2385 22 12 19.7615 12 17C12 14.2385 14.2385 12 17 12C19.7615 12 22 14.2385 22 17C22 19.7615 19.7615 22 17 22Z" stroke="black" stroke-opacity="0.2" stroke-width="2" stroke-linecap="round" stroke-linejoin="round"/>
<path d="M13.5 13.5L20.5 20.5" stroke="#14141E" stroke-width="2" stroke-linecap="round"/>
<path d="M13.5 13.5L20.5 20.5" stroke="black" stroke-opacity="0.2" stroke-width="2" stroke-linecap="round"/>
<path d="M13.5 13.5L20.5 20.5" stroke="black" stroke-opacity="0.2" stroke-width="2" stroke-linecap="round"/>
<path d="M13.5 13.5L20.5 20.5" stroke="black" stroke-opacity="0.2" stroke-width="2" stroke-linecap="round"/>
<path d="M13.5 13.5L20.5 20.5" stroke="black" stroke-opacity="0.2" stroke-width="2" stroke-linecap="round"/>
<path d="M13.5 13.5L20.5 20.5" stroke="black" stroke-opacity="0.2" stroke-width="2" stroke-linecap="round"/>
<path d="M13.5 13.5L20.5 20.5" stroke="black" stroke-opacity="0.2" stroke-width="2" stroke-linecap="round"/>
<path d="M13.5 13.5L20.5 20.5" stroke="black" stroke-opacity="0.2" stroke-width="2" stroke-linecap="round"/>
<path d="M12 17C12 14.2385 14.2385 12 17 12M17 22C19.7615 22 22 19.7615 22 17" stroke="#14141E" stroke-width="2" stroke-linecap="round" stroke-linejoin="round"/>
<path d="M12 17C12 14.2385 14.2385 12 17 12M17 22C19.7615 22 22 19.7615 22 17" stroke="black" stroke-opacity="0.2" stroke-width="2" stroke-linecap="round" stroke-linejoin="round"/>
<path d="M12 17C12 14.2385 14.2385 12 17 12M17 22C19.7615 22 22 19.7615 22 17" stroke="black" stroke-opacity="0.2" stroke-width="2" stroke-linecap="round" stroke-linejoin="round"/>
<path d="M12 17C12 14.2385 14.2385 12 17 12M17 22C19.7615 22 22 19.7615 22 17" stroke="black" stroke-opacity="0.2" stroke-width="2" stroke-linecap="round" stroke-linejoin="round"/>
<path d="M12 17C12 14.2385 14.2385 12 17 12M17 22C19.7615 22 22 19.7615 22 17" stroke="black" stroke-opacity="0.2" stroke-width="2" stroke-linecap="round" stroke-linejoin="round"/>
<path d="M12 17C12 14.2385 14.2385 12 17 12M17 22C19.7615 22 22 19.7615 22 17" stroke="black" stroke-opacity="0.2" stroke-width="2" stroke-linecap="round" stroke-linejoin="round"/>
<path d="M12 17C12 14.2385 14.2385 12 17 12M17 22C19.7615 22 22 19.7615 22 17" stroke="black" stroke-opacity="0.2" stroke-width="2" stroke-linecap="round" stroke-linejoin="round"/>
<path d="M12 17C12 14.2385 14.2385 12 17 12M17 22C19.7615 22 22 19.7615 22 17" stroke="black" stroke-opacity="0.2" stroke-width="2" stroke-linecap="round" stroke-linejoin="round"/>
</svg>
