<svg width="32" height="32" viewBox="0 0 32 32" fill="none" xmlns="http://www.w3.org/2000/svg">
<path fill-rule="evenodd" clip-rule="evenodd" d="M22.3992 9.60021C22.7144 9.17998 22.9437 8.70179 23.0741 8.19294C23.2044 7.68408 23.2333 7.15453 23.159 6.63453C23.0847 6.11452 22.9087 5.61423 22.6411 5.16224C22.3735 4.71024 22.0194 4.31538 21.5992 4.00021C21.179 3.68504 20.7008 3.45572 20.1919 3.32536C19.6831 3.19499 19.1535 3.16613 18.6335 3.24041C18.1135 3.3147 17.6132 3.49068 17.1612 3.75831C16.7092 4.02594 16.3144 4.37998 15.9992 4.80021C15.3627 3.95152 14.4151 3.39044 13.3649 3.24041C12.3147 3.09038 11.2479 3.36369 10.3992 4.00021C9.55053 4.63673 8.98945 5.58432 8.83942 6.63453C8.68939 7.68473 8.9627 8.75152 9.59922 9.60021H5.19922C4.09522 9.60021 3.19922 10.4962 3.19922 11.6002V12.4002C3.19922 13.5042 4.09522 14.4002 5.19922 14.4002H14.7992V9.60021H17.1992V14.4002H26.7992C27.9032 14.4002 28.7992 13.5042 28.7992 12.4002V11.6002C28.7992 10.4962 27.9032 9.60021 26.7992 9.60021H22.3992ZM20.7992 7.20021C20.7992 7.62456 20.6306 8.03152 20.3306 8.33158C20.0305 8.63164 19.6236 8.80021 19.1992 8.80021H17.5992V7.20021C17.5992 6.77587 17.7678 6.3689 18.0678 6.06884C18.3679 5.76878 18.7749 5.60021 19.1992 5.60021C19.6236 5.60021 20.0305 5.76878 20.3306 6.06884C20.6306 6.3689 20.7992 6.77587 20.7992 7.20021ZM11.1992 7.20021C11.1992 7.62456 11.3678 8.03152 11.6678 8.33158C11.9679 8.63164 12.3749 8.80021 12.7992 8.80021H14.3992V7.20021C14.3992 6.77587 14.2306 6.3689 13.9306 6.06884C13.6305 5.76878 13.2236 5.60021 12.7992 5.60021C12.3749 5.60021 11.9679 5.76878 11.6678 6.06884C11.3678 6.3689 11.1992 6.77587 11.1992 7.20021Z" fill="#14141E"/>
<path fill-rule="evenodd" clip-rule="evenodd" d="M22.3992 9.60021C22.7144 9.17998 22.9437 8.70179 23.0741 8.19294C23.2044 7.68408 23.2333 7.15453 23.159 6.63453C23.0847 6.11452 22.9087 5.61423 22.6411 5.16224C22.3735 4.71024 22.0194 4.31538 21.5992 4.00021C21.179 3.68504 20.7008 3.45572 20.1919 3.32536C19.6831 3.19499 19.1535 3.16613 18.6335 3.24041C18.1135 3.3147 17.6132 3.49068 17.1612 3.75831C16.7092 4.02594 16.3144 4.37998 15.9992 4.80021C15.3627 3.95152 14.4151 3.39044 13.3649 3.24041C12.3147 3.09038 11.2479 3.36369 10.3992 4.00021C9.55053 4.63673 8.98945 5.58432 8.83942 6.63453C8.68939 7.68473 8.9627 8.75152 9.59922 9.60021H5.19922C4.09522 9.60021 3.19922 10.4962 3.19922 11.6002V12.4002C3.19922 13.5042 4.09522 14.4002 5.19922 14.4002H14.7992V9.60021H17.1992V14.4002H26.7992C27.9032 14.4002 28.7992 13.5042 28.7992 12.4002V11.6002C28.7992 10.4962 27.9032 9.60021 26.7992 9.60021H22.3992ZM20.7992 7.20021C20.7992 7.62456 20.6306 8.03152 20.3306 8.33158C20.0305 8.63164 19.6236 8.80021 19.1992 8.80021H17.5992V7.20021C17.5992 6.77587 17.7678 6.3689 18.0678 6.06884C18.3679 5.76878 18.7749 5.60021 19.1992 5.60021C19.6236 5.60021 20.0305 5.76878 20.3306 6.06884C20.6306 6.3689 20.7992 6.77587 20.7992 7.20021ZM11.1992 7.20021C11.1992 7.62456 11.3678 8.03152 11.6678 8.33158C11.9679 8.63164 12.3749 8.80021 12.7992 8.80021H14.3992V7.20021C14.3992 6.77587 14.2306 6.3689 13.9306 6.06884C13.6305 5.76878 13.2236 5.60021 12.7992 5.60021C12.3749 5.60021 11.9679 5.76878 11.6678 6.06884C11.3678 6.3689 11.1992 6.77587 11.1992 7.20021Z" fill="black" fill-opacity="0.2"/>
<path fill-rule="evenodd" clip-rule="evenodd" d="M22.3992 9.60021C22.7144 9.17998 22.9437 8.70179 23.0741 8.19294C23.2044 7.68408 23.2333 7.15453 23.159 6.63453C23.0847 6.11452 22.9087 5.61423 22.6411 5.16224C22.3735 4.71024 22.0194 4.31538 21.5992 4.00021C21.179 3.68504 20.7008 3.45572 20.1919 3.32536C19.6831 3.19499 19.1535 3.16613 18.6335 3.24041C18.1135 3.3147 17.6132 3.49068 17.1612 3.75831C16.7092 4.02594 16.3144 4.37998 15.9992 4.80021C15.3627 3.95152 14.4151 3.39044 13.3649 3.24041C12.3147 3.09038 11.2479 3.36369 10.3992 4.00021C9.55053 4.63673 8.98945 5.58432 8.83942 6.63453C8.68939 7.68473 8.9627 8.75152 9.59922 9.60021H5.19922C4.09522 9.60021 3.19922 10.4962 3.19922 11.6002V12.4002C3.19922 13.5042 4.09522 14.4002 5.19922 14.4002H14.7992V9.60021H17.1992V14.4002H26.7992C27.9032 14.4002 28.7992 13.5042 28.7992 12.4002V11.6002C28.7992 10.4962 27.9032 9.60021 26.7992 9.60021H22.3992ZM20.7992 7.20021C20.7992 7.62456 20.6306 8.03152 20.3306 8.33158C20.0305 8.63164 19.6236 8.80021 19.1992 8.80021H17.5992V7.20021C17.5992 6.77587 17.7678 6.3689 18.0678 6.06884C18.3679 5.76878 18.7749 5.60021 19.1992 5.60021C19.6236 5.60021 20.0305 5.76878 20.3306 6.06884C20.6306 6.3689 20.7992 6.77587 20.7992 7.20021ZM11.1992 7.20021C11.1992 7.62456 11.3678 8.03152 11.6678 8.33158C11.9679 8.63164 12.3749 8.80021 12.7992 8.80021H14.3992V7.20021C14.3992 6.77587 14.2306 6.3689 13.9306 6.06884C13.6305 5.76878 13.2236 5.60021 12.7992 5.60021C12.3749 5.60021 11.9679 5.76878 11.6678 6.06884C11.3678 6.3689 11.1992 6.77587 11.1992 7.20021Z" fill="black" fill-opacity="0.2"/>
<path fill-rule="evenodd" clip-rule="evenodd" d="M22.3992 9.60021C22.7144 9.17998 22.9437 8.70179 23.0741 8.19294C23.2044 7.68408 23.2333 7.15453 23.159 6.63453C23.0847 6.11452 22.9087 5.61423 22.6411 5.16224C22.3735 4.71024 22.0194 4.31538 21.5992 4.00021C21.179 3.68504 20.7008 3.45572 20.1919 3.32536C19.6831 3.19499 19.1535 3.16613 18.6335 3.24041C18.1135 3.3147 17.6132 3.49068 17.1612 3.75831C16.7092 4.02594 16.3144 4.37998 15.9992 4.80021C15.3627 3.95152 14.4151 3.39044 13.3649 3.24041C12.3147 3.09038 11.2479 3.36369 10.3992 4.00021C9.55053 4.63673 8.98945 5.58432 8.83942 6.63453C8.68939 7.68473 8.9627 8.75152 9.59922 9.60021H5.19922C4.09522 9.60021 3.19922 10.4962 3.19922 11.6002V12.4002C3.19922 13.5042 4.09522 14.4002 5.19922 14.4002H14.7992V9.60021H17.1992V14.4002H26.7992C27.9032 14.4002 28.7992 13.5042 28.7992 12.4002V11.6002C28.7992 10.4962 27.9032 9.60021 26.7992 9.60021H22.3992ZM20.7992 7.20021C20.7992 7.62456 20.6306 8.03152 20.3306 8.33158C20.0305 8.63164 19.6236 8.80021 19.1992 8.80021H17.5992V7.20021C17.5992 6.77587 17.7678 6.3689 18.0678 6.06884C18.3679 5.76878 18.7749 5.60021 19.1992 5.60021C19.6236 5.60021 20.0305 5.76878 20.3306 6.06884C20.6306 6.3689 20.7992 6.77587 20.7992 7.20021ZM11.1992 7.20021C11.1992 7.62456 11.3678 8.03152 11.6678 8.33158C11.9679 8.63164 12.3749 8.80021 12.7992 8.80021H14.3992V7.20021C14.3992 6.77587 14.2306 6.3689 13.9306 6.06884C13.6305 5.76878 13.2236 5.60021 12.7992 5.60021C12.3749 5.60021 11.9679 5.76878 11.6678 6.06884C11.3678 6.3689 11.1992 6.77587 11.1992 7.20021Z" fill="black" fill-opacity="0.2"/>
<path fill-rule="evenodd" clip-rule="evenodd" d="M22.3992 9.60021C22.7144 9.17998 22.9437 8.70179 23.0741 8.19294C23.2044 7.68408 23.2333 7.15453 23.159 6.63453C23.0847 6.11452 22.9087 5.61423 22.6411 5.16224C22.3735 4.71024 22.0194 4.31538 21.5992 4.00021C21.179 3.68504 20.7008 3.45572 20.1919 3.32536C19.6831 3.19499 19.1535 3.16613 18.6335 3.24041C18.1135 3.3147 17.6132 3.49068 17.1612 3.75831C16.7092 4.02594 16.3144 4.37998 15.9992 4.80021C15.3627 3.95152 14.4151 3.39044 13.3649 3.24041C12.3147 3.09038 11.2479 3.36369 10.3992 4.00021C9.55053 4.63673 8.98945 5.58432 8.83942 6.63453C8.68939 7.68473 8.9627 8.75152 9.59922 9.60021H5.19922C4.09522 9.60021 3.19922 10.4962 3.19922 11.6002V12.4002C3.19922 13.5042 4.09522 14.4002 5.19922 14.4002H14.7992V9.60021H17.1992V14.4002H26.7992C27.9032 14.4002 28.7992 13.5042 28.7992 12.4002V11.6002C28.7992 10.4962 27.9032 9.60021 26.7992 9.60021H22.3992ZM20.7992 7.20021C20.7992 7.62456 20.6306 8.03152 20.3306 8.33158C20.0305 8.63164 19.6236 8.80021 19.1992 8.80021H17.5992V7.20021C17.5992 6.77587 17.7678 6.3689 18.0678 6.06884C18.3679 5.76878 18.7749 5.60021 19.1992 5.60021C19.6236 5.60021 20.0305 5.76878 20.3306 6.06884C20.6306 6.3689 20.7992 6.77587 20.7992 7.20021ZM11.1992 7.20021C11.1992 7.62456 11.3678 8.03152 11.6678 8.33158C11.9679 8.63164 12.3749 8.80021 12.7992 8.80021H14.3992V7.20021C14.3992 6.77587 14.2306 6.3689 13.9306 6.06884C13.6305 5.76878 13.2236 5.60021 12.7992 5.60021C12.3749 5.60021 11.9679 5.76878 11.6678 6.06884C11.3678 6.3689 11.1992 6.77587 11.1992 7.20021Z" fill="black" fill-opacity="0.2"/>
<path fill-rule="evenodd" clip-rule="evenodd" d="M22.3992 9.60021C22.7144 9.17998 22.9437 8.70179 23.0741 8.19294C23.2044 7.68408 23.2333 7.15453 23.159 6.63453C23.0847 6.11452 22.9087 5.61423 22.6411 5.16224C22.3735 4.71024 22.0194 4.31538 21.5992 4.00021C21.179 3.68504 20.7008 3.45572 20.1919 3.32536C19.6831 3.19499 19.1535 3.16613 18.6335 3.24041C18.1135 3.3147 17.6132 3.49068 17.1612 3.75831C16.7092 4.02594 16.3144 4.37998 15.9992 4.80021C15.3627 3.95152 14.4151 3.39044 13.3649 3.24041C12.3147 3.09038 11.2479 3.36369 10.3992 4.00021C9.55053 4.63673 8.98945 5.58432 8.83942 6.63453C8.68939 7.68473 8.9627 8.75152 9.59922 9.60021H5.19922C4.09522 9.60021 3.19922 10.4962 3.19922 11.6002V12.4002C3.19922 13.5042 4.09522 14.4002 5.19922 14.4002H14.7992V9.60021H17.1992V14.4002H26.7992C27.9032 14.4002 28.7992 13.5042 28.7992 12.4002V11.6002C28.7992 10.4962 27.9032 9.60021 26.7992 9.60021H22.3992ZM20.7992 7.20021C20.7992 7.62456 20.6306 8.03152 20.3306 8.33158C20.0305 8.63164 19.6236 8.80021 19.1992 8.80021H17.5992V7.20021C17.5992 6.77587 17.7678 6.3689 18.0678 6.06884C18.3679 5.76878 18.7749 5.60021 19.1992 5.60021C19.6236 5.60021 20.0305 5.76878 20.3306 6.06884C20.6306 6.3689 20.7992 6.77587 20.7992 7.20021ZM11.1992 7.20021C11.1992 7.62456 11.3678 8.03152 11.6678 8.33158C11.9679 8.63164 12.3749 8.80021 12.7992 8.80021H14.3992V7.20021C14.3992 6.77587 14.2306 6.3689 13.9306 6.06884C13.6305 5.76878 13.2236 5.60021 12.7992 5.60021C12.3749 5.60021 11.9679 5.76878 11.6678 6.06884C11.3678 6.3689 11.1992 6.77587 11.1992 7.20021Z" fill="black" fill-opacity="0.2"/>
<path fill-rule="evenodd" clip-rule="evenodd" d="M22.3992 9.60021C22.7144 9.17998 22.9437 8.70179 23.0741 8.19294C23.2044 7.68408 23.2333 7.15453 23.159 6.63453C23.0847 6.11452 22.9087 5.61423 22.6411 5.16224C22.3735 4.71024 22.0194 4.31538 21.5992 4.00021C21.179 3.68504 20.7008 3.45572 20.1919 3.32536C19.6831 3.19499 19.1535 3.16613 18.6335 3.24041C18.1135 3.3147 17.6132 3.49068 17.1612 3.75831C16.7092 4.02594 16.3144 4.37998 15.9992 4.80021C15.3627 3.95152 14.4151 3.39044 13.3649 3.24041C12.3147 3.09038 11.2479 3.36369 10.3992 4.00021C9.55053 4.63673 8.98945 5.58432 8.83942 6.63453C8.68939 7.68473 8.9627 8.75152 9.59922 9.60021H5.19922C4.09522 9.60021 3.19922 10.4962 3.19922 11.6002V12.4002C3.19922 13.5042 4.09522 14.4002 5.19922 14.4002H14.7992V9.60021H17.1992V14.4002H26.7992C27.9032 14.4002 28.7992 13.5042 28.7992 12.4002V11.6002C28.7992 10.4962 27.9032 9.60021 26.7992 9.60021H22.3992ZM20.7992 7.20021C20.7992 7.62456 20.6306 8.03152 20.3306 8.33158C20.0305 8.63164 19.6236 8.80021 19.1992 8.80021H17.5992V7.20021C17.5992 6.77587 17.7678 6.3689 18.0678 6.06884C18.3679 5.76878 18.7749 5.60021 19.1992 5.60021C19.6236 5.60021 20.0305 5.76878 20.3306 6.06884C20.6306 6.3689 20.7992 6.77587 20.7992 7.20021ZM11.1992 7.20021C11.1992 7.62456 11.3678 8.03152 11.6678 8.33158C11.9679 8.63164 12.3749 8.80021 12.7992 8.80021H14.3992V7.20021C14.3992 6.77587 14.2306 6.3689 13.9306 6.06884C13.6305 5.76878 13.2236 5.60021 12.7992 5.60021C12.3749 5.60021 11.9679 5.76878 11.6678 6.06884C11.3678 6.3689 11.1992 6.77587 11.1992 7.20021Z" fill="black" fill-opacity="0.2"/>
<path fill-rule="evenodd" clip-rule="evenodd" d="M22.3992 9.60021C22.7144 9.17998 22.9437 8.70179 23.0741 8.19294C23.2044 7.68408 23.2333 7.15453 23.159 6.63453C23.0847 6.11452 22.9087 5.61423 22.6411 5.16224C22.3735 4.71024 22.0194 4.31538 21.5992 4.00021C21.179 3.68504 20.7008 3.45572 20.1919 3.32536C19.6831 3.19499 19.1535 3.16613 18.6335 3.24041C18.1135 3.3147 17.6132 3.49068 17.1612 3.75831C16.7092 4.02594 16.3144 4.37998 15.9992 4.80021C15.3627 3.95152 14.4151 3.39044 13.3649 3.24041C12.3147 3.09038 11.2479 3.36369 10.3992 4.00021C9.55053 4.63673 8.98945 5.58432 8.83942 6.63453C8.68939 7.68473 8.9627 8.75152 9.59922 9.60021H5.19922C4.09522 9.60021 3.19922 10.4962 3.19922 11.6002V12.4002C3.19922 13.5042 4.09522 14.4002 5.19922 14.4002H14.7992V9.60021H17.1992V14.4002H26.7992C27.9032 14.4002 28.7992 13.5042 28.7992 12.4002V11.6002C28.7992 10.4962 27.9032 9.60021 26.7992 9.60021H22.3992ZM20.7992 7.20021C20.7992 7.62456 20.6306 8.03152 20.3306 8.33158C20.0305 8.63164 19.6236 8.80021 19.1992 8.80021H17.5992V7.20021C17.5992 6.77587 17.7678 6.3689 18.0678 6.06884C18.3679 5.76878 18.7749 5.60021 19.1992 5.60021C19.6236 5.60021 20.0305 5.76878 20.3306 6.06884C20.6306 6.3689 20.7992 6.77587 20.7992 7.20021ZM11.1992 7.20021C11.1992 7.62456 11.3678 8.03152 11.6678 8.33158C11.9679 8.63164 12.3749 8.80021 12.7992 8.80021H14.3992V7.20021C14.3992 6.77587 14.2306 6.3689 13.9306 6.06884C13.6305 5.76878 13.2236 5.60021 12.7992 5.60021C12.3749 5.60021 11.9679 5.76878 11.6678 6.06884C11.3678 6.3689 11.1992 6.77587 11.1992 7.20021Z" fill="black" fill-opacity="0.2"/>
<path d="M14.7988 16.7998H4.79883V24.3998C4.79883 25.5668 5.2624 26.6859 6.08756 27.5111C6.91272 28.3362 8.03188 28.7998 9.19883 28.7998H14.7988V16.7998ZM17.1988 28.7998V16.7998H27.1988V24.3998C27.1988 25.5668 26.7353 26.6859 25.9101 27.5111C25.0849 28.3362 23.9658 28.7998 22.7988 28.7998H17.1988Z" fill="#14141E"/>
<path d="M14.7988 16.7998H4.79883V24.3998C4.79883 25.5668 5.2624 26.6859 6.08756 27.5111C6.91272 28.3362 8.03188 28.7998 9.19883 28.7998H14.7988V16.7998ZM17.1988 28.7998V16.7998H27.1988V24.3998C27.1988 25.5668 26.7353 26.6859 25.9101 27.5111C25.0849 28.3362 23.9658 28.7998 22.7988 28.7998H17.1988Z" fill="black" fill-opacity="0.2"/>
<path d="M14.7988 16.7998H4.79883V24.3998C4.79883 25.5668 5.2624 26.6859 6.08756 27.5111C6.91272 28.3362 8.03188 28.7998 9.19883 28.7998H14.7988V16.7998ZM17.1988 28.7998V16.7998H27.1988V24.3998C27.1988 25.5668 26.7353 26.6859 25.9101 27.5111C25.0849 28.3362 23.9658 28.7998 22.7988 28.7998H17.1988Z" fill="black" fill-opacity="0.2"/>
<path d="M14.7988 16.7998H4.79883V24.3998C4.79883 25.5668 5.2624 26.6859 6.08756 27.5111C6.91272 28.3362 8.03188 28.7998 9.19883 28.7998H14.7988V16.7998ZM17.1988 28.7998V16.7998H27.1988V24.3998C27.1988 25.5668 26.7353 26.6859 25.9101 27.5111C25.0849 28.3362 23.9658 28.7998 22.7988 28.7998H17.1988Z" fill="black" fill-opacity="0.2"/>
<path d="M14.7988 16.7998H4.79883V24.3998C4.79883 25.5668 5.2624 26.6859 6.08756 27.5111C6.91272 28.3362 8.03188 28.7998 9.19883 28.7998H14.7988V16.7998ZM17.1988 28.7998V16.7998H27.1988V24.3998C27.1988 25.5668 26.7353 26.6859 25.9101 27.5111C25.0849 28.3362 23.9658 28.7998 22.7988 28.7998H17.1988Z" fill="black" fill-opacity="0.2"/>
<path d="M14.7988 16.7998H4.79883V24.3998C4.79883 25.5668 5.2624 26.6859 6.08756 27.5111C6.91272 28.3362 8.03188 28.7998 9.19883 28.7998H14.7988V16.7998ZM17.1988 28.7998V16.7998H27.1988V24.3998C27.1988 25.5668 26.7353 26.6859 25.9101 27.5111C25.0849 28.3362 23.9658 28.7998 22.7988 28.7998H17.1988Z" fill="black" fill-opacity="0.2"/>
<path d="M14.7988 16.7998H4.79883V24.3998C4.79883 25.5668 5.2624 26.6859 6.08756 27.5111C6.91272 28.3362 8.03188 28.7998 9.19883 28.7998H14.7988V16.7998ZM17.1988 28.7998V16.7998H27.1988V24.3998C27.1988 25.5668 26.7353 26.6859 25.9101 27.5111C25.0849 28.3362 23.9658 28.7998 22.7988 28.7998H17.1988Z" fill="black" fill-opacity="0.2"/>
<path d="M14.7988 16.7998H4.79883V24.3998C4.79883 25.5668 5.2624 26.6859 6.08756 27.5111C6.91272 28.3362 8.03188 28.7998 9.19883 28.7998H14.7988V16.7998ZM17.1988 28.7998V16.7998H27.1988V24.3998C27.1988 25.5668 26.7353 26.6859 25.9101 27.5111C25.0849 28.3362 23.9658 28.7998 22.7988 28.7998H17.1988Z" fill="black" fill-opacity="0.2"/>
</svg>
