<svg width="38" height="38" viewBox="0 0 38 38" fill="none" xmlns="http://www.w3.org/2000/svg">
<circle cx="19" cy="19" r="19" fill="#1FB03E"/>
<path d="M25 15H24V13C24 10.24 21.76 8 19 8C16.24 8 14 10.24 14 13V15H13C11.9 15 11 15.9 11 17V27C11 28.1 11.9 29 13 29H25C26.1 29 27 28.1 27 27V17C27 15.9 26.1 15 25 15ZM19 24C17.9 24 17 23.1 17 22C17 20.9 17.9 20 19 20C20.1 20 21 20.9 21 22C21 23.1 20.1 24 19 24ZM22.1 15H15.9V13C15.9 11.29 17.29 9.9 19 9.9C20.71 9.9 22.1 11.29 22.1 13V15Z" fill="white"/>
</svg>
