<svg width="32" height="32" viewBox="0 0 32 32" fill="none" xmlns="http://www.w3.org/2000/svg">
<path d="M26.6673 9.33399C26.2895 9.33399 25.9731 9.20599 25.718 8.94999C25.4629 8.69399 25.3349 8.37754 25.334 8.00066V6.66732H24.0007C23.6229 6.66732 23.3064 6.53932 23.0513 6.28332C22.7962 6.02732 22.6682 5.71088 22.6673 5.33399C22.6664 4.9571 22.7944 4.64066 23.0513 4.38466C23.3082 4.12866 23.6247 4.00066 24.0007 4.00066H25.334V2.66732C25.334 2.28954 25.462 1.9731 25.718 1.71799C25.974 1.46288 26.2904 1.33488 26.6673 1.33399C27.0442 1.3331 27.3611 1.4611 27.618 1.71799C27.8749 1.97488 28.0024 2.29132 28.0007 2.66732V4.00066H29.334C29.7118 4.00066 30.0287 4.12866 30.2847 4.38466C30.5407 4.64066 30.6682 4.9571 30.6673 5.33399C30.6664 5.71088 30.5384 6.02777 30.2833 6.28466C30.0282 6.54154 29.7118 6.6691 29.334 6.66732H28.0007V8.00066C28.0007 8.37843 27.8727 8.69532 27.6167 8.95132C27.3607 9.20732 27.0442 9.33488 26.6673 9.33399ZM14.6673 23.334C16.334 23.334 17.7509 22.7509 18.918 21.5847C20.0851 20.4184 20.6682 19.0015 20.6673 17.334C20.6664 15.6664 20.0833 14.25 18.918 13.0847C17.7527 11.9193 16.3358 11.3358 14.6673 11.334C12.9989 11.3322 11.5824 11.9158 10.418 13.0847C9.25354 14.2535 8.66998 15.67 8.66732 17.334C8.66465 18.998 9.24821 20.4149 10.418 21.5847C11.5878 22.7544 13.0042 23.3375 14.6673 23.334ZM14.6673 20.6673C13.734 20.6673 12.9451 20.3451 12.3007 19.7007C11.6562 19.0562 11.334 18.2673 11.334 17.334C11.334 16.4007 11.6562 15.6118 12.3007 14.9673C12.9451 14.3229 13.734 14.0007 14.6673 14.0007C15.6007 14.0007 16.3895 14.3229 17.034 14.9673C17.6784 15.6118 18.0007 16.4007 18.0007 17.334C18.0007 18.2673 17.6784 19.0562 17.034 19.7007C16.3895 20.3451 15.6007 20.6673 14.6673 20.6673ZM4.00065 28.0007C3.26732 28.0007 2.63976 27.7398 2.11798 27.218C1.59621 26.6962 1.33487 26.0682 1.33398 25.334V9.33399C1.33398 8.60066 1.59532 7.9731 2.11798 7.45132C2.64065 6.92954 3.26821 6.66821 4.00065 6.66732H8.20065L9.86732 4.86732C10.1118 4.60066 10.4064 4.38954 10.7513 4.23399C11.0962 4.07843 11.4571 4.00066 11.834 4.00066H18.6673C19.0451 4.00066 19.362 4.12866 19.618 4.38466C19.874 4.64066 20.0015 4.9571 20.0007 5.33399V7.33399C20.0007 7.88954 20.1953 8.36199 20.5847 8.75132C20.974 9.14066 21.446 9.33488 22.0007 9.33399H22.6673V10.0007C22.6673 10.5562 22.862 11.0287 23.2513 11.418C23.6407 11.8073 24.1127 12.0015 24.6673 12.0007H26.6673C27.0451 12.0007 27.362 12.1287 27.618 12.3847C27.874 12.6407 28.0015 12.9571 28.0007 13.334V25.334C28.0007 26.0673 27.7398 26.6953 27.218 27.218C26.6962 27.7407 26.0682 28.0015 25.334 28.0007H4.00065Z" fill="black"/>
</svg>
