<svg width="16" height="16" viewBox="0 0 16 16" fill="none" xmlns="http://www.w3.org/2000/svg">
<path d="M7.99979 1.33301C6.76211 1.33301 5.57513 1.82467 4.69996 2.69984C3.82479 3.57501 3.33312 4.762 3.33312 5.99967V8.35167C3.33322 8.45509 3.30926 8.55712 3.26312 8.64967L2.11846 10.9383C2.06254 11.0502 2.03614 11.1744 2.04176 11.2993C2.04737 11.4242 2.08483 11.5456 2.15055 11.6519C2.21628 11.7582 2.30811 11.846 2.4173 11.9069C2.5265 11.9678 2.64944 11.9997 2.77446 11.9997H13.2251C13.3501 11.9997 13.4731 11.9678 13.5823 11.9069C13.6915 11.846 13.7833 11.7582 13.849 11.6519C13.9148 11.5456 13.9522 11.4242 13.9578 11.2993C13.9634 11.1744 13.937 11.0502 13.8811 10.9383L12.7371 8.64967C12.6908 8.55717 12.6666 8.45515 12.6665 8.35167V5.99967C12.6665 4.762 12.1748 3.57501 11.2996 2.69984C10.4245 1.82467 9.23747 1.33301 7.99979 1.33301ZM7.99979 13.9997C7.58602 13.9999 7.18237 13.8718 6.84447 13.633C6.50657 13.3942 6.25105 13.0564 6.11312 12.6663H9.88646C9.74853 13.0564 9.49301 13.3942 9.15511 13.633C8.81721 13.8718 8.41356 13.9999 7.99979 13.9997Z" fill="black"/>
</svg>
