<svg width="22" height="22" viewBox="0 0 22 22" fill="none" xmlns="http://www.w3.org/2000/svg">
<path d="M20.4239 10.111L13.5489 16.986C13.4527 17.0822 13.3302 17.1478 13.1967 17.1744C13.0633 17.2009 12.925 17.1873 12.7993 17.1352C12.6736 17.0832 12.5662 16.995 12.4906 16.8818C12.4151 16.7686 12.3748 16.6356 12.3749 16.4996V13.0818C7.46792 13.3603 4.10346 16.5425 3.15901 17.5506C3.01071 17.709 2.81623 17.8165 2.60325 17.858C2.39028 17.8994 2.16965 17.8726 1.97278 17.7814C1.7759 17.6902 1.61281 17.5393 1.50671 17.35C1.40061 17.1607 1.35691 16.9428 1.38182 16.7273C1.70065 13.955 3.21917 11.2883 5.65807 9.21894C7.68362 7.50019 10.1457 6.40964 12.3749 6.21886V2.74956C12.3748 2.61351 12.4151 2.48049 12.4906 2.36733C12.5662 2.25417 12.6736 2.16597 12.7993 2.11389C12.925 2.06181 13.0633 2.04819 13.1967 2.07476C13.3302 2.10134 13.4527 2.1669 13.5489 2.26316L20.4239 9.13816C20.4878 9.20201 20.5385 9.27783 20.5731 9.36129C20.6077 9.44475 20.6255 9.53422 20.6255 9.62457C20.6255 9.71491 20.6077 9.80438 20.5731 9.88784C20.5385 9.9713 20.4878 10.0471 20.4239 10.111Z" fill="black"/>
</svg>
