<svg width="16" height="16" viewBox="0 0 16 16" fill="none" xmlns="http://www.w3.org/2000/svg">
<circle cx="8" cy="8" r="8" fill="#D9D9D9"/>
<path d="M4.57129 11.4275V9.80841L9.59986 4.78936C9.67605 4.71952 9.76024 4.66555 9.85243 4.62746C9.94462 4.58936 10.0414 4.57031 10.1427 4.57031C10.2441 4.57031 10.3425 4.58936 10.438 4.62746C10.5334 4.66555 10.616 4.72269 10.6856 4.79888L11.2094 5.33222C11.2856 5.40206 11.3412 5.4846 11.3762 5.57984C11.4113 5.67507 11.4287 5.77031 11.4284 5.86555C11.4284 5.96714 11.411 6.06403 11.3762 6.15622C11.3414 6.24841 11.2858 6.33247 11.2094 6.40841L6.19034 11.4275H4.57129ZM10.1332 6.39888L10.6665 5.86555L10.1332 5.33222L9.59986 5.86555L10.1332 6.39888Z" fill="black"/>
</svg>
