<svg width="14" height="14" viewBox="0 0 14 14" fill="none" xmlns="http://www.w3.org/2000/svg">
<path d="M7 14C7.91942 14.0011 8.83 13.8206 9.67943 13.4687C10.5289 13.1169 11.3004 12.6006 11.9497 11.9497C12.6006 11.3004 13.1169 10.5289 13.4687 9.67943C13.8206 8.83 14.0011 7.91942 14 7C14.0011 6.08058 13.8206 5.17 13.4687 4.32057C13.1169 3.47115 12.6006 2.69961 11.9497 2.0503C11.3004 1.39936 10.5289 0.883131 9.67943 0.531275C8.83 0.179419 7.91942 -0.00112846 7 5.30667e-06C6.08058 -0.00112846 5.17 0.179419 4.32057 0.531275C3.47115 0.883131 2.69961 1.39936 2.0503 2.0503C1.39936 2.69961 0.883131 3.47115 0.531275 4.32057C0.179419 5.17 -0.00112846 6.08058 5.30667e-06 7C-0.00112846 7.91942 0.179419 8.83 0.531275 9.67943C0.883131 10.5289 1.39936 11.3004 2.0503 11.9497C2.69961 12.6006 3.47115 13.1169 4.32057 13.4687C5.17 13.8206 6.08058 14.0011 7 14Z" fill="#FF4A4A"/>
<path d="M7 10.0498C7.16576 10.0498 7.32517 10.1152 7.44238 10.2324C7.55959 10.3496 7.625 10.509 7.625 10.6748C7.625 10.8406 7.55959 11 7.44238 11.1172C7.32517 11.2344 7.16576 11.2998 7 11.2998C6.83424 11.2998 6.67483 11.2344 6.55762 11.1172C6.44041 11 6.375 10.8406 6.375 10.6748C6.375 10.509 6.44041 10.3496 6.55762 10.2324C6.67483 10.1152 6.83424 10.0498 7 10.0498Z" fill="white" stroke="white" stroke-width="0.5"/>
<path d="M7 2.7998V8.3998V2.7998Z" fill="white"/>
<path d="M7 2.7998V8.3998" stroke="white" stroke-width="1.5" stroke-linecap="round" stroke-linejoin="round"/>
</svg>
