<svg width="32" height="32" viewBox="0 0 32 32" fill="none" xmlns="http://www.w3.org/2000/svg">
<path d="M14.4333 29.3337C13.8333 29.3337 13.3169 29.1337 12.884 28.7337C12.4511 28.3337 12.1898 27.8448 12.1 27.267L11.8 25.067C11.5111 24.9559 11.2391 24.8225 10.984 24.667C10.7289 24.5114 10.4786 24.3448 10.2333 24.167L8.16664 25.0337C7.61108 25.2781 7.05553 25.3003 6.49997 25.1003C5.94442 24.9003 5.51109 24.5448 5.19997 24.0337L3.63331 21.3003C3.3222 20.7892 3.23331 20.2448 3.36664 19.667C3.49997 19.0892 3.79997 18.6114 4.26664 18.2337L6.03331 16.9003C6.01109 16.7448 5.99997 16.5945 5.99997 16.4497V15.5497C5.99997 15.4057 6.01109 15.2559 6.03331 15.1003L4.26664 13.767C3.79997 13.3892 3.49997 12.9114 3.36664 12.3337C3.23331 11.7559 3.3222 11.2114 3.63331 10.7003L5.19997 7.96699C5.51109 7.45588 5.94442 7.10033 6.49997 6.90033C7.05553 6.70033 7.61108 6.72255 8.16664 6.96699L10.2333 7.83366C10.4778 7.65588 10.7333 7.48921 11 7.33366C11.2666 7.1781 11.5333 7.04477 11.8 6.93366L12.1 4.73366C12.1889 4.15588 12.4502 3.66699 12.884 3.26699C13.3178 2.86699 13.8342 2.66699 14.4333 2.66699H17.5666C18.1666 2.66699 18.6835 2.86699 19.1173 3.26699C19.5511 3.66699 19.812 4.15588 19.9 4.73366L20.2 6.93366C20.4889 7.04477 20.7613 7.1781 21.0173 7.33366C21.2733 7.48921 21.5231 7.65588 21.7666 7.83366L23.8333 6.96699C24.3889 6.72255 24.9444 6.70033 25.5 6.90033C26.0555 7.10033 26.4889 7.45588 26.8 7.96699L28.3666 10.7003C28.6777 11.2114 28.7666 11.7559 28.6333 12.3337C28.5 12.9114 28.2 13.3892 27.7333 13.767L25.9666 15.1003C25.9889 15.2559 26 15.4061 26 15.551V16.4497C26 16.5945 25.9778 16.7448 25.9333 16.9003L27.7 18.2337C28.1666 18.6114 28.4666 19.0892 28.6 19.667C28.7333 20.2448 28.6444 20.7892 28.3333 21.3003L26.7333 24.0337C26.4222 24.5448 25.9889 24.9003 25.4333 25.1003C24.8778 25.3003 24.3222 25.2781 23.7666 25.0337L21.7666 24.167C21.5222 24.3448 21.2666 24.5114 21 24.667C20.7333 24.8225 20.4666 24.9559 20.2 25.067L19.9 27.267C19.8111 27.8448 19.5502 28.3337 19.1173 28.7337C18.6844 29.1337 18.1675 29.3337 17.5666 29.3337H14.4333ZM16.0666 20.667C17.3555 20.667 18.4555 20.2114 19.3666 19.3003C20.2778 18.3892 20.7333 17.2892 20.7333 16.0003C20.7333 14.7114 20.2778 13.6114 19.3666 12.7003C18.4555 11.7892 17.3555 11.3337 16.0666 11.3337C14.7555 11.3337 13.6498 11.7892 12.7493 12.7003C11.8489 13.6114 11.3991 14.7114 11.4 16.0003C11.4009 17.2892 11.8511 18.3892 12.7506 19.3003C13.6502 20.2114 14.7555 20.667 16.0666 20.667Z" fill="#14141E"/>
<path d="M14.4333 29.3337C13.8333 29.3337 13.3169 29.1337 12.884 28.7337C12.4511 28.3337 12.1898 27.8448 12.1 27.267L11.8 25.067C11.5111 24.9559 11.2391 24.8225 10.984 24.667C10.7289 24.5114 10.4786 24.3448 10.2333 24.167L8.16664 25.0337C7.61108 25.2781 7.05553 25.3003 6.49997 25.1003C5.94442 24.9003 5.51109 24.5448 5.19997 24.0337L3.63331 21.3003C3.3222 20.7892 3.23331 20.2448 3.36664 19.667C3.49997 19.0892 3.79997 18.6114 4.26664 18.2337L6.03331 16.9003C6.01109 16.7448 5.99997 16.5945 5.99997 16.4497V15.5497C5.99997 15.4057 6.01109 15.2559 6.03331 15.1003L4.26664 13.767C3.79997 13.3892 3.49997 12.9114 3.36664 12.3337C3.23331 11.7559 3.3222 11.2114 3.63331 10.7003L5.19997 7.96699C5.51109 7.45588 5.94442 7.10033 6.49997 6.90033C7.05553 6.70033 7.61108 6.72255 8.16664 6.96699L10.2333 7.83366C10.4778 7.65588 10.7333 7.48921 11 7.33366C11.2666 7.1781 11.5333 7.04477 11.8 6.93366L12.1 4.73366C12.1889 4.15588 12.4502 3.66699 12.884 3.26699C13.3178 2.86699 13.8342 2.66699 14.4333 2.66699H17.5666C18.1666 2.66699 18.6835 2.86699 19.1173 3.26699C19.5511 3.66699 19.812 4.15588 19.9 4.73366L20.2 6.93366C20.4889 7.04477 20.7613 7.1781 21.0173 7.33366C21.2733 7.48921 21.5231 7.65588 21.7666 7.83366L23.8333 6.96699C24.3889 6.72255 24.9444 6.70033 25.5 6.90033C26.0555 7.10033 26.4889 7.45588 26.8 7.96699L28.3666 10.7003C28.6777 11.2114 28.7666 11.7559 28.6333 12.3337C28.5 12.9114 28.2 13.3892 27.7333 13.767L25.9666 15.1003C25.9889 15.2559 26 15.4061 26 15.551V16.4497C26 16.5945 25.9778 16.7448 25.9333 16.9003L27.7 18.2337C28.1666 18.6114 28.4666 19.0892 28.6 19.667C28.7333 20.2448 28.6444 20.7892 28.3333 21.3003L26.7333 24.0337C26.4222 24.5448 25.9889 24.9003 25.4333 25.1003C24.8778 25.3003 24.3222 25.2781 23.7666 25.0337L21.7666 24.167C21.5222 24.3448 21.2666 24.5114 21 24.667C20.7333 24.8225 20.4666 24.9559 20.2 25.067L19.9 27.267C19.8111 27.8448 19.5502 28.3337 19.1173 28.7337C18.6844 29.1337 18.1675 29.3337 17.5666 29.3337H14.4333ZM16.0666 20.667C17.3555 20.667 18.4555 20.2114 19.3666 19.3003C20.2778 18.3892 20.7333 17.2892 20.7333 16.0003C20.7333 14.7114 20.2778 13.6114 19.3666 12.7003C18.4555 11.7892 17.3555 11.3337 16.0666 11.3337C14.7555 11.3337 13.6498 11.7892 12.7493 12.7003C11.8489 13.6114 11.3991 14.7114 11.4 16.0003C11.4009 17.2892 11.8511 18.3892 12.7506 19.3003C13.6502 20.2114 14.7555 20.667 16.0666 20.667Z" fill="black" fill-opacity="0.2"/>
<path d="M14.4333 29.3337C13.8333 29.3337 13.3169 29.1337 12.884 28.7337C12.4511 28.3337 12.1898 27.8448 12.1 27.267L11.8 25.067C11.5111 24.9559 11.2391 24.8225 10.984 24.667C10.7289 24.5114 10.4786 24.3448 10.2333 24.167L8.16664 25.0337C7.61108 25.2781 7.05553 25.3003 6.49997 25.1003C5.94442 24.9003 5.51109 24.5448 5.19997 24.0337L3.63331 21.3003C3.3222 20.7892 3.23331 20.2448 3.36664 19.667C3.49997 19.0892 3.79997 18.6114 4.26664 18.2337L6.03331 16.9003C6.01109 16.7448 5.99997 16.5945 5.99997 16.4497V15.5497C5.99997 15.4057 6.01109 15.2559 6.03331 15.1003L4.26664 13.767C3.79997 13.3892 3.49997 12.9114 3.36664 12.3337C3.23331 11.7559 3.3222 11.2114 3.63331 10.7003L5.19997 7.96699C5.51109 7.45588 5.94442 7.10033 6.49997 6.90033C7.05553 6.70033 7.61108 6.72255 8.16664 6.96699L10.2333 7.83366C10.4778 7.65588 10.7333 7.48921 11 7.33366C11.2666 7.1781 11.5333 7.04477 11.8 6.93366L12.1 4.73366C12.1889 4.15588 12.4502 3.66699 12.884 3.26699C13.3178 2.86699 13.8342 2.66699 14.4333 2.66699H17.5666C18.1666 2.66699 18.6835 2.86699 19.1173 3.26699C19.5511 3.66699 19.812 4.15588 19.9 4.73366L20.2 6.93366C20.4889 7.04477 20.7613 7.1781 21.0173 7.33366C21.2733 7.48921 21.5231 7.65588 21.7666 7.83366L23.8333 6.96699C24.3889 6.72255 24.9444 6.70033 25.5 6.90033C26.0555 7.10033 26.4889 7.45588 26.8 7.96699L28.3666 10.7003C28.6777 11.2114 28.7666 11.7559 28.6333 12.3337C28.5 12.9114 28.2 13.3892 27.7333 13.767L25.9666 15.1003C25.9889 15.2559 26 15.4061 26 15.551V16.4497C26 16.5945 25.9778 16.7448 25.9333 16.9003L27.7 18.2337C28.1666 18.6114 28.4666 19.0892 28.6 19.667C28.7333 20.2448 28.6444 20.7892 28.3333 21.3003L26.7333 24.0337C26.4222 24.5448 25.9889 24.9003 25.4333 25.1003C24.8778 25.3003 24.3222 25.2781 23.7666 25.0337L21.7666 24.167C21.5222 24.3448 21.2666 24.5114 21 24.667C20.7333 24.8225 20.4666 24.9559 20.2 25.067L19.9 27.267C19.8111 27.8448 19.5502 28.3337 19.1173 28.7337C18.6844 29.1337 18.1675 29.3337 17.5666 29.3337H14.4333ZM16.0666 20.667C17.3555 20.667 18.4555 20.2114 19.3666 19.3003C20.2778 18.3892 20.7333 17.2892 20.7333 16.0003C20.7333 14.7114 20.2778 13.6114 19.3666 12.7003C18.4555 11.7892 17.3555 11.3337 16.0666 11.3337C14.7555 11.3337 13.6498 11.7892 12.7493 12.7003C11.8489 13.6114 11.3991 14.7114 11.4 16.0003C11.4009 17.2892 11.8511 18.3892 12.7506 19.3003C13.6502 20.2114 14.7555 20.667 16.0666 20.667Z" fill="black" fill-opacity="0.2"/>
<path d="M14.4333 29.3337C13.8333 29.3337 13.3169 29.1337 12.884 28.7337C12.4511 28.3337 12.1898 27.8448 12.1 27.267L11.8 25.067C11.5111 24.9559 11.2391 24.8225 10.984 24.667C10.7289 24.5114 10.4786 24.3448 10.2333 24.167L8.16664 25.0337C7.61108 25.2781 7.05553 25.3003 6.49997 25.1003C5.94442 24.9003 5.51109 24.5448 5.19997 24.0337L3.63331 21.3003C3.3222 20.7892 3.23331 20.2448 3.36664 19.667C3.49997 19.0892 3.79997 18.6114 4.26664 18.2337L6.03331 16.9003C6.01109 16.7448 5.99997 16.5945 5.99997 16.4497V15.5497C5.99997 15.4057 6.01109 15.2559 6.03331 15.1003L4.26664 13.767C3.79997 13.3892 3.49997 12.9114 3.36664 12.3337C3.23331 11.7559 3.3222 11.2114 3.63331 10.7003L5.19997 7.96699C5.51109 7.45588 5.94442 7.10033 6.49997 6.90033C7.05553 6.70033 7.61108 6.72255 8.16664 6.96699L10.2333 7.83366C10.4778 7.65588 10.7333 7.48921 11 7.33366C11.2666 7.1781 11.5333 7.04477 11.8 6.93366L12.1 4.73366C12.1889 4.15588 12.4502 3.66699 12.884 3.26699C13.3178 2.86699 13.8342 2.66699 14.4333 2.66699H17.5666C18.1666 2.66699 18.6835 2.86699 19.1173 3.26699C19.5511 3.66699 19.812 4.15588 19.9 4.73366L20.2 6.93366C20.4889 7.04477 20.7613 7.1781 21.0173 7.33366C21.2733 7.48921 21.5231 7.65588 21.7666 7.83366L23.8333 6.96699C24.3889 6.72255 24.9444 6.70033 25.5 6.90033C26.0555 7.10033 26.4889 7.45588 26.8 7.96699L28.3666 10.7003C28.6777 11.2114 28.7666 11.7559 28.6333 12.3337C28.5 12.9114 28.2 13.3892 27.7333 13.767L25.9666 15.1003C25.9889 15.2559 26 15.4061 26 15.551V16.4497C26 16.5945 25.9778 16.7448 25.9333 16.9003L27.7 18.2337C28.1666 18.6114 28.4666 19.0892 28.6 19.667C28.7333 20.2448 28.6444 20.7892 28.3333 21.3003L26.7333 24.0337C26.4222 24.5448 25.9889 24.9003 25.4333 25.1003C24.8778 25.3003 24.3222 25.2781 23.7666 25.0337L21.7666 24.167C21.5222 24.3448 21.2666 24.5114 21 24.667C20.7333 24.8225 20.4666 24.9559 20.2 25.067L19.9 27.267C19.8111 27.8448 19.5502 28.3337 19.1173 28.7337C18.6844 29.1337 18.1675 29.3337 17.5666 29.3337H14.4333ZM16.0666 20.667C17.3555 20.667 18.4555 20.2114 19.3666 19.3003C20.2778 18.3892 20.7333 17.2892 20.7333 16.0003C20.7333 14.7114 20.2778 13.6114 19.3666 12.7003C18.4555 11.7892 17.3555 11.3337 16.0666 11.3337C14.7555 11.3337 13.6498 11.7892 12.7493 12.7003C11.8489 13.6114 11.3991 14.7114 11.4 16.0003C11.4009 17.2892 11.8511 18.3892 12.7506 19.3003C13.6502 20.2114 14.7555 20.667 16.0666 20.667Z" fill="black" fill-opacity="0.2"/>
<path d="M14.4333 29.3337C13.8333 29.3337 13.3169 29.1337 12.884 28.7337C12.4511 28.3337 12.1898 27.8448 12.1 27.267L11.8 25.067C11.5111 24.9559 11.2391 24.8225 10.984 24.667C10.7289 24.5114 10.4786 24.3448 10.2333 24.167L8.16664 25.0337C7.61108 25.2781 7.05553 25.3003 6.49997 25.1003C5.94442 24.9003 5.51109 24.5448 5.19997 24.0337L3.63331 21.3003C3.3222 20.7892 3.23331 20.2448 3.36664 19.667C3.49997 19.0892 3.79997 18.6114 4.26664 18.2337L6.03331 16.9003C6.01109 16.7448 5.99997 16.5945 5.99997 16.4497V15.5497C5.99997 15.4057 6.01109 15.2559 6.03331 15.1003L4.26664 13.767C3.79997 13.3892 3.49997 12.9114 3.36664 12.3337C3.23331 11.7559 3.3222 11.2114 3.63331 10.7003L5.19997 7.96699C5.51109 7.45588 5.94442 7.10033 6.49997 6.90033C7.05553 6.70033 7.61108 6.72255 8.16664 6.96699L10.2333 7.83366C10.4778 7.65588 10.7333 7.48921 11 7.33366C11.2666 7.1781 11.5333 7.04477 11.8 6.93366L12.1 4.73366C12.1889 4.15588 12.4502 3.66699 12.884 3.26699C13.3178 2.86699 13.8342 2.66699 14.4333 2.66699H17.5666C18.1666 2.66699 18.6835 2.86699 19.1173 3.26699C19.5511 3.66699 19.812 4.15588 19.9 4.73366L20.2 6.93366C20.4889 7.04477 20.7613 7.1781 21.0173 7.33366C21.2733 7.48921 21.5231 7.65588 21.7666 7.83366L23.8333 6.96699C24.3889 6.72255 24.9444 6.70033 25.5 6.90033C26.0555 7.10033 26.4889 7.45588 26.8 7.96699L28.3666 10.7003C28.6777 11.2114 28.7666 11.7559 28.6333 12.3337C28.5 12.9114 28.2 13.3892 27.7333 13.767L25.9666 15.1003C25.9889 15.2559 26 15.4061 26 15.551V16.4497C26 16.5945 25.9778 16.7448 25.9333 16.9003L27.7 18.2337C28.1666 18.6114 28.4666 19.0892 28.6 19.667C28.7333 20.2448 28.6444 20.7892 28.3333 21.3003L26.7333 24.0337C26.4222 24.5448 25.9889 24.9003 25.4333 25.1003C24.8778 25.3003 24.3222 25.2781 23.7666 25.0337L21.7666 24.167C21.5222 24.3448 21.2666 24.5114 21 24.667C20.7333 24.8225 20.4666 24.9559 20.2 25.067L19.9 27.267C19.8111 27.8448 19.5502 28.3337 19.1173 28.7337C18.6844 29.1337 18.1675 29.3337 17.5666 29.3337H14.4333ZM16.0666 20.667C17.3555 20.667 18.4555 20.2114 19.3666 19.3003C20.2778 18.3892 20.7333 17.2892 20.7333 16.0003C20.7333 14.7114 20.2778 13.6114 19.3666 12.7003C18.4555 11.7892 17.3555 11.3337 16.0666 11.3337C14.7555 11.3337 13.6498 11.7892 12.7493 12.7003C11.8489 13.6114 11.3991 14.7114 11.4 16.0003C11.4009 17.2892 11.8511 18.3892 12.7506 19.3003C13.6502 20.2114 14.7555 20.667 16.0666 20.667Z" fill="black" fill-opacity="0.2"/>
<path d="M14.4333 29.3337C13.8333 29.3337 13.3169 29.1337 12.884 28.7337C12.4511 28.3337 12.1898 27.8448 12.1 27.267L11.8 25.067C11.5111 24.9559 11.2391 24.8225 10.984 24.667C10.7289 24.5114 10.4786 24.3448 10.2333 24.167L8.16664 25.0337C7.61108 25.2781 7.05553 25.3003 6.49997 25.1003C5.94442 24.9003 5.51109 24.5448 5.19997 24.0337L3.63331 21.3003C3.3222 20.7892 3.23331 20.2448 3.36664 19.667C3.49997 19.0892 3.79997 18.6114 4.26664 18.2337L6.03331 16.9003C6.01109 16.7448 5.99997 16.5945 5.99997 16.4497V15.5497C5.99997 15.4057 6.01109 15.2559 6.03331 15.1003L4.26664 13.767C3.79997 13.3892 3.49997 12.9114 3.36664 12.3337C3.23331 11.7559 3.3222 11.2114 3.63331 10.7003L5.19997 7.96699C5.51109 7.45588 5.94442 7.10033 6.49997 6.90033C7.05553 6.70033 7.61108 6.72255 8.16664 6.96699L10.2333 7.83366C10.4778 7.65588 10.7333 7.48921 11 7.33366C11.2666 7.1781 11.5333 7.04477 11.8 6.93366L12.1 4.73366C12.1889 4.15588 12.4502 3.66699 12.884 3.26699C13.3178 2.86699 13.8342 2.66699 14.4333 2.66699H17.5666C18.1666 2.66699 18.6835 2.86699 19.1173 3.26699C19.5511 3.66699 19.812 4.15588 19.9 4.73366L20.2 6.93366C20.4889 7.04477 20.7613 7.1781 21.0173 7.33366C21.2733 7.48921 21.5231 7.65588 21.7666 7.83366L23.8333 6.96699C24.3889 6.72255 24.9444 6.70033 25.5 6.90033C26.0555 7.10033 26.4889 7.45588 26.8 7.96699L28.3666 10.7003C28.6777 11.2114 28.7666 11.7559 28.6333 12.3337C28.5 12.9114 28.2 13.3892 27.7333 13.767L25.9666 15.1003C25.9889 15.2559 26 15.4061 26 15.551V16.4497C26 16.5945 25.9778 16.7448 25.9333 16.9003L27.7 18.2337C28.1666 18.6114 28.4666 19.0892 28.6 19.667C28.7333 20.2448 28.6444 20.7892 28.3333 21.3003L26.7333 24.0337C26.4222 24.5448 25.9889 24.9003 25.4333 25.1003C24.8778 25.3003 24.3222 25.2781 23.7666 25.0337L21.7666 24.167C21.5222 24.3448 21.2666 24.5114 21 24.667C20.7333 24.8225 20.4666 24.9559 20.2 25.067L19.9 27.267C19.8111 27.8448 19.5502 28.3337 19.1173 28.7337C18.6844 29.1337 18.1675 29.3337 17.5666 29.3337H14.4333ZM16.0666 20.667C17.3555 20.667 18.4555 20.2114 19.3666 19.3003C20.2778 18.3892 20.7333 17.2892 20.7333 16.0003C20.7333 14.7114 20.2778 13.6114 19.3666 12.7003C18.4555 11.7892 17.3555 11.3337 16.0666 11.3337C14.7555 11.3337 13.6498 11.7892 12.7493 12.7003C11.8489 13.6114 11.3991 14.7114 11.4 16.0003C11.4009 17.2892 11.8511 18.3892 12.7506 19.3003C13.6502 20.2114 14.7555 20.667 16.0666 20.667Z" fill="black" fill-opacity="0.2"/>
<path d="M14.4333 29.3337C13.8333 29.3337 13.3169 29.1337 12.884 28.7337C12.4511 28.3337 12.1898 27.8448 12.1 27.267L11.8 25.067C11.5111 24.9559 11.2391 24.8225 10.984 24.667C10.7289 24.5114 10.4786 24.3448 10.2333 24.167L8.16664 25.0337C7.61108 25.2781 7.05553 25.3003 6.49997 25.1003C5.94442 24.9003 5.51109 24.5448 5.19997 24.0337L3.63331 21.3003C3.3222 20.7892 3.23331 20.2448 3.36664 19.667C3.49997 19.0892 3.79997 18.6114 4.26664 18.2337L6.03331 16.9003C6.01109 16.7448 5.99997 16.5945 5.99997 16.4497V15.5497C5.99997 15.4057 6.01109 15.2559 6.03331 15.1003L4.26664 13.767C3.79997 13.3892 3.49997 12.9114 3.36664 12.3337C3.23331 11.7559 3.3222 11.2114 3.63331 10.7003L5.19997 7.96699C5.51109 7.45588 5.94442 7.10033 6.49997 6.90033C7.05553 6.70033 7.61108 6.72255 8.16664 6.96699L10.2333 7.83366C10.4778 7.65588 10.7333 7.48921 11 7.33366C11.2666 7.1781 11.5333 7.04477 11.8 6.93366L12.1 4.73366C12.1889 4.15588 12.4502 3.66699 12.884 3.26699C13.3178 2.86699 13.8342 2.66699 14.4333 2.66699H17.5666C18.1666 2.66699 18.6835 2.86699 19.1173 3.26699C19.5511 3.66699 19.812 4.15588 19.9 4.73366L20.2 6.93366C20.4889 7.04477 20.7613 7.1781 21.0173 7.33366C21.2733 7.48921 21.5231 7.65588 21.7666 7.83366L23.8333 6.96699C24.3889 6.72255 24.9444 6.70033 25.5 6.90033C26.0555 7.10033 26.4889 7.45588 26.8 7.96699L28.3666 10.7003C28.6777 11.2114 28.7666 11.7559 28.6333 12.3337C28.5 12.9114 28.2 13.3892 27.7333 13.767L25.9666 15.1003C25.9889 15.2559 26 15.4061 26 15.551V16.4497C26 16.5945 25.9778 16.7448 25.9333 16.9003L27.7 18.2337C28.1666 18.6114 28.4666 19.0892 28.6 19.667C28.7333 20.2448 28.6444 20.7892 28.3333 21.3003L26.7333 24.0337C26.4222 24.5448 25.9889 24.9003 25.4333 25.1003C24.8778 25.3003 24.3222 25.2781 23.7666 25.0337L21.7666 24.167C21.5222 24.3448 21.2666 24.5114 21 24.667C20.7333 24.8225 20.4666 24.9559 20.2 25.067L19.9 27.267C19.8111 27.8448 19.5502 28.3337 19.1173 28.7337C18.6844 29.1337 18.1675 29.3337 17.5666 29.3337H14.4333ZM16.0666 20.667C17.3555 20.667 18.4555 20.2114 19.3666 19.3003C20.2778 18.3892 20.7333 17.2892 20.7333 16.0003C20.7333 14.7114 20.2778 13.6114 19.3666 12.7003C18.4555 11.7892 17.3555 11.3337 16.0666 11.3337C14.7555 11.3337 13.6498 11.7892 12.7493 12.7003C11.8489 13.6114 11.3991 14.7114 11.4 16.0003C11.4009 17.2892 11.8511 18.3892 12.7506 19.3003C13.6502 20.2114 14.7555 20.667 16.0666 20.667Z" fill="black" fill-opacity="0.2"/>
<path d="M14.4333 29.3337C13.8333 29.3337 13.3169 29.1337 12.884 28.7337C12.4511 28.3337 12.1898 27.8448 12.1 27.267L11.8 25.067C11.5111 24.9559 11.2391 24.8225 10.984 24.667C10.7289 24.5114 10.4786 24.3448 10.2333 24.167L8.16664 25.0337C7.61108 25.2781 7.05553 25.3003 6.49997 25.1003C5.94442 24.9003 5.51109 24.5448 5.19997 24.0337L3.63331 21.3003C3.3222 20.7892 3.23331 20.2448 3.36664 19.667C3.49997 19.0892 3.79997 18.6114 4.26664 18.2337L6.03331 16.9003C6.01109 16.7448 5.99997 16.5945 5.99997 16.4497V15.5497C5.99997 15.4057 6.01109 15.2559 6.03331 15.1003L4.26664 13.767C3.79997 13.3892 3.49997 12.9114 3.36664 12.3337C3.23331 11.7559 3.3222 11.2114 3.63331 10.7003L5.19997 7.96699C5.51109 7.45588 5.94442 7.10033 6.49997 6.90033C7.05553 6.70033 7.61108 6.72255 8.16664 6.96699L10.2333 7.83366C10.4778 7.65588 10.7333 7.48921 11 7.33366C11.2666 7.1781 11.5333 7.04477 11.8 6.93366L12.1 4.73366C12.1889 4.15588 12.4502 3.66699 12.884 3.26699C13.3178 2.86699 13.8342 2.66699 14.4333 2.66699H17.5666C18.1666 2.66699 18.6835 2.86699 19.1173 3.26699C19.5511 3.66699 19.812 4.15588 19.9 4.73366L20.2 6.93366C20.4889 7.04477 20.7613 7.1781 21.0173 7.33366C21.2733 7.48921 21.5231 7.65588 21.7666 7.83366L23.8333 6.96699C24.3889 6.72255 24.9444 6.70033 25.5 6.90033C26.0555 7.10033 26.4889 7.45588 26.8 7.96699L28.3666 10.7003C28.6777 11.2114 28.7666 11.7559 28.6333 12.3337C28.5 12.9114 28.2 13.3892 27.7333 13.767L25.9666 15.1003C25.9889 15.2559 26 15.4061 26 15.551V16.4497C26 16.5945 25.9778 16.7448 25.9333 16.9003L27.7 18.2337C28.1666 18.6114 28.4666 19.0892 28.6 19.667C28.7333 20.2448 28.6444 20.7892 28.3333 21.3003L26.7333 24.0337C26.4222 24.5448 25.9889 24.9003 25.4333 25.1003C24.8778 25.3003 24.3222 25.2781 23.7666 25.0337L21.7666 24.167C21.5222 24.3448 21.2666 24.5114 21 24.667C20.7333 24.8225 20.4666 24.9559 20.2 25.067L19.9 27.267C19.8111 27.8448 19.5502 28.3337 19.1173 28.7337C18.6844 29.1337 18.1675 29.3337 17.5666 29.3337H14.4333ZM16.0666 20.667C17.3555 20.667 18.4555 20.2114 19.3666 19.3003C20.2778 18.3892 20.7333 17.2892 20.7333 16.0003C20.7333 14.7114 20.2778 13.6114 19.3666 12.7003C18.4555 11.7892 17.3555 11.3337 16.0666 11.3337C14.7555 11.3337 13.6498 11.7892 12.7493 12.7003C11.8489 13.6114 11.3991 14.7114 11.4 16.0003C11.4009 17.2892 11.8511 18.3892 12.7506 19.3003C13.6502 20.2114 14.7555 20.667 16.0666 20.667Z" fill="black" fill-opacity="0.2"/>
</svg>
