<svg width="14" height="14" viewBox="0 0 14 14" fill="none" xmlns="http://www.w3.org/2000/svg">
<path d="M6.99902 1H7.00098C7.78865 0.999029 8.56916 1.15364 9.29688 1.45508C10.0243 1.75641 10.6851 2.19848 11.2412 2.75586V2.75684L11.2432 2.75781C11.8008 3.31406 12.2435 3.97545 12.5449 4.70312C12.8464 5.43084 13.001 6.21135 13 6.99902V7.00098C13.001 7.78865 12.8464 8.56916 12.5449 9.29688C12.2435 10.0246 11.8008 10.6859 11.2432 11.2422L11.2422 11.2432C10.6859 11.8008 10.0246 12.2435 9.29688 12.5449C8.56916 12.8464 7.78865 13.001 7.00098 13H6.99902C6.21135 13.001 5.43084 12.8464 4.70312 12.5449C3.97545 12.2435 3.31406 11.8008 2.75781 11.2432L2.75684 11.2422L2.55273 11.0283C2.0904 10.5192 1.71883 9.93358 1.45508 9.29688C1.15364 8.56916 0.999029 7.78865 1 7.00098V6.99902C0.999029 6.21135 1.15364 5.43084 1.45508 4.70312C1.75652 3.97545 2.19919 3.31406 2.75684 2.75781L2.75781 2.75684C3.31406 2.19919 3.97545 1.75652 4.70312 1.45508C5.43084 1.15364 6.21135 0.999029 6.99902 1Z" stroke="#4FCEB9" stroke-width="2" stroke-linejoin="round"/>
</svg>
